<svg id="Layer_1" data-name="Layer 1" xmlns="http://www.w3.org/2000/svg" viewBox="0 0 2000 2000"><defs><style>.cls-1{fill:#ed1f27;}.cls-2{fill:#ef353c;}</style></defs><title>Untitled-1</title><path class="cls-1" d="M705.26,898.65h59.9c1.91,0,3.83,0,5.74.06,12.18.53,23.61,9.52,26.41,21.35,4.15,17.58-6.16,30.42-19.26,34.89a34.67,34.67,0,0,1-7.47,1.47c-.1,0-.21.28-.24.44s-.06.5,0,.59a27.49,27.49,0,0,0,2.49,2c6.39,4.2,12.63,8.61,18.61,13.37a34.72,34.72,0,0,1,4.65,4.33,9.65,9.65,0,0,1,.82,10.76,10.23,10.23,0,0,1-14.28,3.91c-1.28-.76-2.44-1.69-3.67-2.53-5.78-4-11.49-8-17.36-11.84A142.58,142.58,0,0,0,731,962.05a99.25,99.25,0,0,0-33.7-5.77c-12.11.05-24.21,0-36.32,0-1.49,0-3,0-4.46.06a7.64,7.64,0,0,0-7,6.33,31.34,31.34,0,0,0-.3,4.44c0,4.25,0,8.5,0,12.74,0,1.28,0,2.56-.1,3.82a9.9,9.9,0,0,1-7,9c-6.77,2.25-12.75-2.17-13.71-8.5a16.51,16.51,0,0,1-.09-2.54q0-9.89,0-19.76a26.77,26.77,0,0,1,5-15.5,25.54,25.54,0,0,1,14.91-10.21,17,17,0,0,1,3.78-.48c2.33-.1,4.67-.1,7-.1H764.12c1.7,0,3.41.09,5.09-.05a13.75,13.75,0,0,0,3.69-.85,7.15,7.15,0,0,0,4.92-6.77,7.51,7.51,0,0,0-4.17-7.32,8.59,8.59,0,0,0-4.24-1.22c-1.91,0-3.83,0-5.74,0H643.87c-2.12,0-4.25-.05-6.37-.07-5,0-11.15-6.13-8.7-13.51a10.08,10.08,0,0,1,9.55-7.11c1.7.05,3.4,0,5.1,0Z"/><path class="cls-1" d="M1651,993.23h-60.51c-1.7,0-3.4-.06-5.1,0-3.71.07-8.59-3.41-9.32-8.17a28.57,28.57,0,0,1-.36-4.43q0-16.25,0-32.49a31.25,31.25,0,0,1,.37-4.42,9.22,9.22,0,0,1,3.07-5.44c3.13-2.93,6.91-3.36,10.7-2.09s6.17,4.39,6.77,8.51a33,33,0,0,1,.12,4.45c0,6.37,0,12.74,0,19.11a16.34,16.34,0,0,0,.39,3.12,1.23,1.23,0,0,0,.82.78,38.3,38.3,0,0,0,4.42.3c7.43,0,14.86,0,22.29,0h80.91a43.9,43.9,0,0,0,8.24-.59c8.48-1.61,14-6.56,17-14.58a32.59,32.59,0,0,0,1.69-12.54,34.41,34.41,0,0,0-1.43-9.42q-4.12-12.63-17.09-15.26a41.55,41.55,0,0,0-5.67-.66c-1.7-.11-3.4,0-5.1,0H1591.06c-1.91,0-3.82,0-5.73-.06a9.45,9.45,0,0,1-8.76-6.32,9.9,9.9,0,0,1,2.12-11.21,9.18,9.18,0,0,1,6.76-3.08c1.69,0,3.39,0,5.09,0h119.13c1.91,0,3.82,0,5.73.07a29.07,29.07,0,0,1,13.34,3.73,41,41,0,0,1,13.78,12.07,52.18,52.18,0,0,1,10.19,34.7,53.15,53.15,0,0,1-7.07,23.56,43.31,43.31,0,0,1-14.72,15.59,29.72,29.72,0,0,1-15.6,4.82c-1.91,0-3.82,0-5.73,0Z"/><path class="cls-1" d="M429.35,946v32.47c0,1.49-.05,3,0,4.46.17,5.22-4.64,10.47-10.64,10.38-4.77-.07-9.67-4-10.08-8.85-.16-1.9-.2-3.81-.21-5.72,0-13.58,0-27.17,0-40.75a27,27,0,0,0-.47-4.39c0-.21-.84-.56-1.07-.44a28.83,28.83,0,0,0-3.19,2A138.88,138.88,0,0,1,383.18,948a95.13,95.13,0,0,1-24.51,8.6A111.57,111.57,0,0,1,325.74,958a94.71,94.71,0,0,1-27.62-7,118.71,118.71,0,0,1-21-11.84c-2.27-1.57-4.46-3.24-6.7-4.85-.82-.6-1.61-1.62-2.76-.9s-.75,1.87-.75,2.87q0,21,0,42c0,1.91,0,3.83-.15,5.73a9.59,9.59,0,0,1-3.4,6.62A10.46,10.46,0,0,1,246,983.94a24,24,0,0,1-.08-3.18q0-34.71,0-69.41c0-1.06,0-2.13.05-3.18a10.25,10.25,0,0,1,15.55-8,46.66,46.66,0,0,1,5.05,3.84c5.12,4.13,10.15,8.37,15.34,12.42a123.61,123.61,0,0,0,17,11.17,66.17,66.17,0,0,0,20.82,7.52c1.88.31,3.78.56,5.68.69a215.1,215.1,0,0,0,23.55.16,57.27,57.27,0,0,0,20.89-5,100.63,100.63,0,0,0,15-8.37,235.69,235.69,0,0,0,23.14-17.91c1.61-1.38,3.19-2.81,4.91-4a11,11,0,0,1,6.58-2c4.85,0,9.44,4.32,9.84,9.11.14,1.69.09,3.39.09,5.09Q429.37,929.4,429.35,946Z"/><path class="cls-1" d="M1385.22,950.28V920.34a22.69,22.69,0,0,1,1-7.53c2.39-6.94,7.07-11.6,14.1-13.49A20.6,20.6,0,0,1,1415.8,901c1.68.9,3.32,1.9,4.94,2.89q46.71,28.54,93.42,57.07c3.44,2.09,7,3.92,10.55,5.9a6.92,6.92,0,0,0,3.67.85,3.33,3.33,0,0,0,3.06-1.93,15.58,15.58,0,0,0,1.45-6.16c.14-2.54.23-5.09.23-7.63,0-12.75,0-25.49,0-38.23,0-1.7,0-3.4,0-5.1a10,10,0,0,1,5.46-8.74c5.79-3.16,13.6-.21,15,6.68a28.37,28.37,0,0,1,.42,5.69c0,10.2,0,20.39,0,30.59,0,8.7,0,17.41,0,26.12a68.05,68.05,0,0,1-.38,7c-.91,8.52-9.08,17-19.16,17.28a22.7,22.7,0,0,1-12.75-3.22l-10.87-6.64q-42.63-26-85.28-52.08c-3.43-2.1-7-4-10.51-6a8.23,8.23,0,0,0-3.61-1.11,3.87,3.87,0,0,0-4,2.49,12,12,0,0,0-.65,2.44,90.07,90.07,0,0,0-.8,12.07c0,12.53,0,25.06,0,37.59,0,1.9,0,3.82-.18,5.72-.41,4.78-5.43,8.65-9.54,8.71a10.49,10.49,0,0,1-9.31-4.47,9,9,0,0,1-1.81-5.35c0-1.48,0-3,0-4.45q0-14.34,0-28.68Z"/><path class="cls-1" d="M1204.23,982.31a8.52,8.52,0,0,1,1.66-5.18c.72-1,1.51-2,2.27-3.07l49-65.91c1-1.37,2-2.75,3.11-4a28.65,28.65,0,0,1,34.76-6.73,25.11,25.11,0,0,1,7.94,6.27c1.08,1.3,2.09,2.67,3.11,4q24.6,32.88,49.2,65.77a48.1,48.1,0,0,1,3,4.15c4.58,7.65-1.79,15.75-8.6,15.64a10.2,10.2,0,0,1-8.34-3.8c-1.07-1.32-2.08-2.69-3.1-4q-22.53-30.07-45.07-60.12c-1.66-2.2-3.53-4.23-5.35-6.3a13.21,13.21,0,0,0-1.91-1.67,6,6,0,0,0-7.62-.09,35.93,35.93,0,0,0-4.1,4c-1,1.09-1.82,2.34-2.72,3.53q-22.8,30.25-45.61,60.5c-1.15,1.53-2.29,3.06-3.53,4.51a10.36,10.36,0,0,1-17.07-2.31A11,11,0,0,1,1204.23,982.31Z"/><path class="cls-1" d="M462.28,993.25c-5.34-.14-8.37-2.18-10.21-5.91a9.77,9.77,0,0,1,.69-10.27c.7-1.06,1.51-2.05,2.27-3.07q24.51-33,49-65.91c1-1.36,2-2.76,3.11-4a28.65,28.65,0,0,1,35.34-6.36,24.41,24.41,0,0,1,7.36,6c.94,1.15,1.84,2.34,2.73,3.53q25,33.39,50,66.79c.76,1,1.54,2,2.25,3.09a10.38,10.38,0,0,1-15.86,13.21,50,50,0,0,1-3.56-4.48q-22.74-30.3-45.46-60.62c-1.65-2.2-3.54-4.22-5.36-6.29a11.74,11.74,0,0,0-1.92-1.66,6,6,0,0,0-7.62,0,37.47,37.47,0,0,0-4.08,4c-1,1.1-1.82,2.35-2.71,3.54q-22.82,30.26-45.62,60.5c-1.15,1.53-2.28,3.07-3.55,4.5C467,992.13,464.4,993.43,462.28,993.25Z"/><path class="cls-1" d="M896.8,971.11c0-4.25,0-8.49,0-12.74a2,2,0,0,0-2-2c-2.74-.27-5.5-.41-8.22-.84a68.15,68.15,0,0,1-20.88-7.4A133.26,133.26,0,0,1,849,937.58c-8.24-6-16.08-12.51-23.75-19.22a22.18,22.18,0,0,1-3.11-3.17,10.12,10.12,0,0,1,4.26-15.85,9,9,0,0,1,8.57.56,50.88,50.88,0,0,1,5.11,3.76c4.94,4,9.78,8.16,14.74,12.16a135.78,135.78,0,0,0,14.55,10.28,62.71,62.71,0,0,0,18,7.73,76.65,76.65,0,0,0,12.63,1.49,126.1,126.1,0,0,0,24.79-.86,39.77,39.77,0,0,0,10.33-3.07,76,76,0,0,0,12.28-6.67,205.44,205.44,0,0,0,18.8-14.17c3.1-2.58,6.13-5.25,9.22-7.83a41.73,41.73,0,0,1,3.57-2.65,10.39,10.39,0,0,1,12.36,1.4,10.06,10.06,0,0,1,1.54,12.8,16.57,16.57,0,0,1-2.89,3.36C980,926.42,969.71,935,958.46,942.26a99.27,99.27,0,0,1-19.18,9.91,57.56,57.56,0,0,1-18.56,4.07c-.42,0-.84.09-1.26.13a1.91,1.91,0,0,0-1.67,1.61c-.06,1.27-.13,2.54-.13,3.81,0,6,0,11.9,0,17.84,0,1.27,0,2.55,0,3.82.07,4.42-3.59,8.66-7.93,9.55a10.36,10.36,0,0,1-12-6.08,12.76,12.76,0,0,1-.76-4.35c-.1-3.81,0-7.64,0-11.46Z"/><path class="cls-1" d="M1109.7,993.23h-59.19c-1.9,0-3.82,0-5.72,0a29.69,29.69,0,0,1-27.2-20.44,37.11,37.11,0,0,1-1.15-6.24,26.86,26.86,0,0,1-.14-3.81q0-25.46,0-50.91a43.85,43.85,0,0,1,.22-4.44c.46-4.58,5-8.71,10.15-8.74,5.58,0,10.41,4.83,10.55,9.84,0,1.7,0,3.4,0,5.09q0,22.92,0,45.83c0,1.48.06,3,0,4.45-.2,4.26,3.06,7.94,7.76,8.55a21.66,21.66,0,0,0,2.55.1H1170.4c2.12,0,4.24.09,6.36.07,4.67,0,9.77,4.63,9.53,10.73a10.34,10.34,0,0,1-9.76,9.89c-1.91.09-3.82.05-5.73.05Z"/><path class="cls-1" d="M1248,990.61c.19-.33.31-.9.57-1,2.86-.76,5.74-1.46,8.62-2.13,7.63-1.77,15.26-3.54,22.9-5.26a7.35,7.35,0,0,1,3.12-.16c10.53,2.38,21,4.84,31.56,7.28a1.34,1.34,0,0,1,1.12,1.83c-.08.19-.17.38-.26.58q-6.75,14.38-13.52,28.76c-.07.17-.42.39-.47.36-.29-.21-.73-.48-.74-.74-.08-4.67-.09-9.33-.17-14a11.7,11.7,0,0,0-.48-2.44c0-.12-.26-.26-.42-.28s-.53,0-.6.1a22.33,22.33,0,0,0-1.76,3.26c-2.72,7.35-5.35,14.73-8,22.09-2.2,6-4.45,11.89-6.69,17.83-.06.16-.33.37-.46.35-.37-.06-.91-.12-1-.37a15.37,15.37,0,0,1-1-2.32c-3.42-9.36-6.82-18.72-10.27-28.06-1.54-4.17-3.17-8.31-4.81-12.44a1.19,1.19,0,0,0-1.05-.45c-.28,0-.63.49-.72.82a7.9,7.9,0,0,0-.2,1.88c0,2.34,0,4.67,0,7s0,4.67-.13,7c0,.28-.42.56-.69.8a.88.88,0,0,1-.48-.36q-6.78-14.37-13.52-28.76A6.9,6.9,0,0,1,1248,990.61Z"/><path class="cls-2" d="M1088.15,1082.86c0-6.37,0-12.74,0-19.1a20.68,20.68,0,0,1,.35-3.13c.07-.47.55-.64,1-.29a28,28,0,0,1,2.73,2.6q11.31,12.94,22.6,25.91a28.77,28.77,0,0,0,3.22,3c.19.15.86-.06,1.16-.3a1.68,1.68,0,0,0,.56-1.07c.11-1.69.17-3.39.18-5.08,0-6.79,0-13.59,0-20.38,0-1.27,0-2.55.07-3.82a1.8,1.8,0,0,1,1.67-1.59c2-.23,3,.46,3.11,2.18,0,.42.06.84.06,1.27q0,20.06,0,40.11a4.57,4.57,0,0,1-.35,1.84,1.14,1.14,0,0,1-1.07.33,13.44,13.44,0,0,1-2.34-2q-11.11-12.69-22.2-25.41c-1.25-1.43-2.58-2.79-3.88-4.18a.68.68,0,0,0-1.13,0c-.13.14-.38.26-.39.41-.09,1.27-.18,2.54-.18,3.81,0,7.64,0,15.28,0,22.92a37.23,37.23,0,0,1-.18,3.81,1.89,1.89,0,0,1-.68,1c-.8.66-3,.57-3.59-.13a2.25,2.25,0,0,1-.58-1.08c-.1-1.06-.1-2.12-.1-3.18Z"/><path class="cls-2" d="M779,1082.58c0-5.93,0-11.85,0-17.78,0-1.06.05-2.12.12-3.17a2.12,2.12,0,0,1,2-2c3.6,0,7.2-.11,10.8,0a52.17,52.17,0,0,1,6.92.79,11.06,11.06,0,0,1,8,5.73,12.06,12.06,0,0,1-6.92,17.51c-1.82.53-3.7.87-5.52,1.38a1.08,1.08,0,0,0-.41,1,16.52,16.52,0,0,0,1.62,2.67c4,5.19,8,10.36,12,15.56a1.51,1.51,0,0,1,.19,1.19,1.29,1.29,0,0,1-.88.7,5.37,5.37,0,0,1-5.57-2.11c-4.21-5.57-8.53-11.06-12.83-16.56a20,20,0,0,0-2.18-2.23,1.55,1.55,0,0,0-2.11.69,18.82,18.82,0,0,0-.28,2.48c0,4.44,0,8.89,0,13.33a22,22,0,0,1-.21,3.15,1.47,1.47,0,0,1-.73.93,2.64,2.64,0,0,1-3-.09,2.31,2.31,0,0,1-.88-1.55c-.11-3-.12-5.92-.13-8.89C779,1091.05,779,1086.82,779,1082.58Zm11.6-18v-.16c-1.89.12-3.78.2-5.66.39a1.24,1.24,0,0,0-.83.85c-.08,4.2-.1,8.41-.1,12.62a1.7,1.7,0,0,0,1.73,1.49q5.06,0,10.1,0a7.68,7.68,0,0,0,7.23-8,7.26,7.26,0,0,0-6.16-7,10.69,10.69,0,0,0-1.88-.18C793.58,1064.53,792.1,1064.55,790.63,1064.55Z"/><path class="cls-2" d="M926.69,1082.34c0-6.15,0-12.29,0-18.43a11.19,11.19,0,0,1,.34-3.12,2.2,2.2,0,0,1,1.36-1.11,3.64,3.64,0,0,1,1.88,0c.59.15,1.21.51,1.23,1.25.08,3,.11,5.92.17,8.88.22,10.29-1.63,9,9.07,9.12,4,0,8,0,12.07-.12a1.88,1.88,0,0,0,1.93-2c.06-4,0-8,.11-12.07a21.46,21.46,0,0,1,.27-3.77,2.17,2.17,0,0,1,1.27-1.23,3.48,3.48,0,0,1,1.87,0c.6.12,1.25.36,1.33,1.15s.19,1.67.2,2.51q0,19.71,0,39.41a9.9,9.9,0,0,1-.1,1.89,2.34,2.34,0,0,1-.63,1c-.68.71-3,.61-3.52-.14a2.42,2.42,0,0,1-.55-1.11c-.09-2.12-.12-4.23-.15-6.35-.06-4.23-.09-8.47-.16-12.7a1.68,1.68,0,0,0-1.65-1.56q-9.85,0-19.7,0a1.66,1.66,0,0,0-1.56,1.6c0,4.45-.07,8.9-.1,13.34,0,1.91,0,3.82-.12,5.72a2.11,2.11,0,0,1-1.09,1.4,2.87,2.87,0,0,1-3-.28,1.71,1.71,0,0,1-.62-1,25.79,25.79,0,0,1-.16-3.17Q926.69,1091.88,926.69,1082.34Z"/><path class="cls-2" d="M449.8,1082.62c0-6.15,0-12.31,0-18.46a13.24,13.24,0,0,1,.27-3.15c.12-.49.75-.92,1.24-1.24a2.52,2.52,0,0,1,1.24-.19c3.82,0,7.64-.06,11.46.08a32,32,0,0,1,5.66.76,11.79,11.79,0,0,1,8.95,15.06,11.19,11.19,0,0,1-8.1,8.19c-1.63.47-3.31.77-5,1.16a1.2,1.2,0,0,0-.55,2c1,1.38,2,2.75,3,4.1,3.11,4,6.26,8,9.35,12.08a12,12,0,0,1,1.15,2.19.65.65,0,0,1-.09.61c-.89.69-4,.57-4.86-.25a21.52,21.52,0,0,1-2.12-2.35c-4-5.18-8.05-10.4-12.1-15.58a17.41,17.41,0,0,0-2.16-2.3A2.12,2.12,0,0,0,456,1085c-.5,0-1.14.67-1.14,1.27,0,4.88-.05,9.76-.1,14.63a28.3,28.3,0,0,1-.22,3.8,1.59,1.59,0,0,1-1.26,1.26c-2.33.57-3.43-.52-3.47-2.37,0-.42,0-.84,0-1.27Zm5.1-10.86h-.18c.08,2.31.13,4.62.28,6.92a1.26,1.26,0,0,0,.79.9,47.24,47.24,0,0,0,11.94-.07,7,7,0,0,0,4.72-2.89,7.41,7.41,0,0,0-5.17-11.89,95.16,95.16,0,0,0-11.33,0,1.33,1.33,0,0,0-1.05,1.37C454.91,1068,454.9,1069.86,454.9,1071.76Z"/><path class="cls-2" d="M869.84,1102.67a20.16,20.16,0,0,0,11.34-3.6c1.05-.71,2-1.58,3-2.38,1.73-1.39,2.49-1.3,4.27.48a1.23,1.23,0,0,1,.3,1.64,23.18,23.18,0,0,1-14.73,8,27.61,27.61,0,0,1-15.61-1.64c-7.54-3.26-12.1-9.1-13.74-17.16a28.77,28.77,0,0,1-.22-9.49c1.16-9.07,9.26-17.52,18.68-19.42a28.9,28.9,0,0,1,15.06.82,22.85,22.85,0,0,1,9.55,6.12c1.74,1.83,1.52,3-1,4.36a1.79,1.79,0,0,1-1.19.08,2.82,2.82,0,0,1-1.06-.66c-.8-.7-1.52-1.49-2.35-2.15a20.73,20.73,0,0,0-25.92.23c-5.19,4.19-7.29,9.86-6.9,16.36C850.05,1096.32,860,1103,869.84,1102.67Z"/><path class="cls-2" d="M529.49,1106.1c-3.6,0-7.2,0-10.8,0a1.72,1.72,0,0,1-1.55-1.69c0-.63-.1-1.27-.1-1.9q0-19.39,0-38.79a17.35,17.35,0,0,1,.36-3.12,1.32,1.32,0,0,1,.84-.77,6.26,6.26,0,0,1,1.87-.26q10.17,0,20.35,0a17.23,17.23,0,0,1,1.89.17,2.25,2.25,0,0,1,1.41,1.88c0,.42,0,.84-.07,1.27a1.49,1.49,0,0,1-1.11,1.37,10.56,10.56,0,0,1-2.52.23c-3.82,0-7.63,0-11.45,0-1.48,0-3,0-4.44.06-1.31,0-2.06.68-2.1,1.81-.06,1.7-.12,3.39-.1,5.08.1,7.89-1,7.09,7.12,7.13l12.09,0c1.83,0,2.87,1.26,2.25,3.52a1.53,1.53,0,0,1-1.29,1.22c-1.68.14-3.38.16-5.07.18-4.45.06-8.9.07-13.35.13a1.68,1.68,0,0,0-1.61,1.6q0,7.29,0,14.6a1.7,1.7,0,0,0,1.75,1.44c4.66,0,9.32,0,14,.08,1.48,0,3,.07,4.44.19.37,0,.95.38,1,.66a8.18,8.18,0,0,1,.08,2.47,1.83,1.83,0,0,1-1.84,1.43c-4,0-8.05,0-12.08,0Z"/><path class="cls-2" d="M640.11,1082.75c0-6.15,0-12.31,0-18.47a13.87,13.87,0,0,1,.26-3.16,2.35,2.35,0,0,1,1.17-1.3,4.45,4.45,0,0,1,1.87-.26q10.5,0,21,0c1.83,0,2.5.86,2.4,2.88a1.82,1.82,0,0,1-1.94,2c-4.89,0-9.77,0-14.66,0a34.54,34.54,0,0,0-3.8.19,1.24,1.24,0,0,0-1.21,1.18,67.12,67.12,0,0,0,0,11.43,1.23,1.23,0,0,0,1.32,1.1c2.33.13,4.66.15,7,.17,3.61,0,7.22,0,10.83,0,1.82,0,2.36.91,2.24,3a1.92,1.92,0,0,1-.14.62c-.22.6-.49,1.2-1.25,1.21-4.45.06-8.91.07-13.37.14-1.9,0-3.8.16-5.69.33-.31,0-.61.45-.86.74a1,1,0,0,0-.16.6q0,7.32,0,14.64c0,.86.68,1.42,1.7,1.43l14.66.09c1.27,0,2.54.05,3.81.13a1.28,1.28,0,0,1,1.19,1.23,4.25,4.25,0,0,1,0,1.88,3.27,3.27,0,0,1-1.07,1.41,2.25,2.25,0,0,1-1.24.17q-10.51,0-21,0a5.92,5.92,0,0,1-1.87-.32,1.49,1.49,0,0,1-.86-.86,16.59,16.59,0,0,1-.35-3.14C640.09,1095.5,640.11,1089.13,640.11,1082.75Z"/><path class="cls-2" d="M1504.92,1082.67c0-7,0-14,0-21,0-1.31.69-2.06,1.86-2.06,7.63,0,15.26,0,22.9,0,1.55,0,2.6,2.53,1.65,3.93a1.67,1.67,0,0,1-1,.69c-1.47.13-2.95.18-4.44.2-4.87.06-9.75.09-14.62.14a1.81,1.81,0,0,0-1.25,1.24c0,3.81,0,7.62.08,11.43,0,.4.81,1.08,1.27,1.11,2.33.15,4.66.14,7,.17,3.82,0,7.63.08,11.45.14a1.78,1.78,0,0,1,1.62,1.65c.29,1.91-.47,3.1-2.14,3.11-5.09,0-10.18,0-15.27.08a17.18,17.18,0,0,0-3.12.3c-.32.07-.65.53-.81.88a3.25,3.25,0,0,0-.2,1.25c0,1.9,0,3.81,0,5.72,0,8.73,0,9,.85,9.23,2.89.87,5.87.32,8.8.42,3.39.11,6.78,0,10.17.14a2.71,2.71,0,0,1,1.6.83c.44.44.21,2.64-.22,3a3.2,3.2,0,0,1-1.07.66,4,4,0,0,1-1.25.17h-21a10.76,10.76,0,0,1-1.26-.13,1.84,1.84,0,0,1-1.51-1.76c-.06-2.54-.09-5.09-.1-7.63,0-4.67,0-9.33,0-14Z"/><path class="cls-2" d="M741.5,1106.17c-2.13.1-3.28-.53-4-2.09-1.8-3.83-3.68-7.62-5.55-11.42a2.67,2.67,0,0,0-2.52-1.59c-5.51,0-11,0-16.52,0a2.17,2.17,0,0,0-2,1.28c-1.3,2.66-2.57,5.33-3.86,8-.65,1.33-1.32,2.65-2,4-.77,1.57-2.1,2.23-4.91,1.58-.26,0-.49-.67-.53-1a2.49,2.49,0,0,1,.28-1.2q9.92-20.94,19.87-41.86a4.65,4.65,0,0,1,1.11-1.49c.23-.19,1-.19,1.1,0a22.15,22.15,0,0,1,1.93,3.24q8.36,17.82,16.65,35.66c.8,1.72,1.6,3.45,2.37,5.19a1.39,1.39,0,0,1-1.26,1.74ZM721,1086v0h6.34c.57,0,1.21-.79,1-1.24q-3.13-6.57-6.28-13.13a.56.56,0,0,0-.47-.25c-.38.14-.9.29-1,.58-2,4.19-4,8.39-6,12.6a1,1,0,0,0,.72,1.4Z"/><path class="cls-1" d="M324.42,982.94a13.13,13.13,0,0,1,13-13.61,13.49,13.49,0,1,1,.23,27A13.12,13.12,0,0,1,324.42,982.94Z"/><path class="cls-2" d="M1378.89,1077.1c0-5.09,0-10.18,0-15.27a2.5,2.5,0,0,1,.67-1.7,2.61,2.61,0,0,1,3-.25,2.16,2.16,0,0,1,1.06,1.39,34.56,34.56,0,0,1,.19,4.44c0,7.64,0,15.28,0,22.92a49.66,49.66,0,0,0,.25,5.72,8.31,8.31,0,0,0,4.48,6.57c3.31,1.83,6.72,2.43,10.32.61a9.5,9.5,0,0,0,5.47-7.32,43.3,43.3,0,0,0,.34-6.35c0-7.64,0-15.28,0-22.92,0-1.27.08-2.54.15-3.81a1.9,1.9,0,0,1,1.8-1.5,5.8,5.8,0,0,1,1.86.17,1.46,1.46,0,0,1,.85.82,5.88,5.88,0,0,1,.29,1.86c0,8.92,0,17.83,0,26.74a36,36,0,0,1-.74,6.94c-1.31,6.34-6.83,11.16-14.38,11.09a17.48,17.48,0,0,1-6.83-1.31,13.44,13.44,0,0,1-8.54-11,37.52,37.52,0,0,1-.28-5.08c0-4.25,0-8.49,0-12.74Z"/><path class="cls-2" d="M589.27,1058.39a12.94,12.94,0,0,1,7.14,2.42,39.21,39.21,0,0,1,4,4c.82.89.61,1.72-.54,2.64a3,3,0,0,1-1,.72,2.65,2.65,0,0,1-1.78,0,17.33,17.33,0,0,1-2.29-2.17,8.58,8.58,0,0,0-3.19-2,6.06,6.06,0,0,0-7,9.63,20.64,20.64,0,0,0,2.69,2.68c1.64,1.34,3.41,2.53,5,3.87,2,1.62,3.89,3.28,5.71,5a14.68,14.68,0,0,1,3.44,5.28c3,7.61-2.7,14.6-8.31,16.08-5.84,1.54-10.9.19-14.94-4.42a29.87,29.87,0,0,1-2.25-3.07c-.79-1.17-.39-2.25,1.08-3a3.82,3.82,0,0,1,1.15-.52,1.45,1.45,0,0,1,1.13.21c.85.94,1.54,2,2.41,2.94a17.36,17.36,0,0,0,2.83,2.52c4.83,3.29,11.23-.23,12.15-4.81a7.51,7.51,0,0,0-1.32-6,22.79,22.79,0,0,0-3.39-3.76c-1.73-1.56-3.61-2.94-5.4-4.43s-3.63-2.94-5.29-4.57a11.25,11.25,0,0,1-3.33-9.25,10.12,10.12,0,0,1,5.2-8.25A13.9,13.9,0,0,1,589.27,1058.39Z"/><path class="cls-2" d="M1186.55,1094.84a12.22,12.22,0,0,1-8.54,11.59,13.44,13.44,0,0,1-14.64-3.39,28.18,28.18,0,0,1-2.77-3.46c-1.3-1.8-1-2.61,1.36-3.84a1.36,1.36,0,0,1,1.71.08c.86.93,1.53,2,2.41,2.94a16,16,0,0,0,2.85,2.49,8.11,8.11,0,0,0,11.47-3.1,6.16,6.16,0,0,0,.2-6.09,16.59,16.59,0,0,0-2.95-4.09c-2-1.92-4.15-3.61-6.25-5.39-1.93-1.65-4-3.17-5.78-5a11,11,0,0,1-3.37-9.24,10.22,10.22,0,0,1,5.81-8.54,11.65,11.65,0,0,1,12.61,1,28.2,28.2,0,0,1,4,4c.76.81.49,1.84-.59,2.66a5.19,5.19,0,0,1-1,.7,1.59,1.59,0,0,1-1.77-.07,37.11,37.11,0,0,0-3.83-3.3,6.47,6.47,0,0,0-6.63-.67,5.78,5.78,0,0,0-2.9,8,11.3,11.3,0,0,0,3.22,3.88c2,1.56,4,3.11,6,4.64a33.5,33.5,0,0,1,6.06,5.59C1185.29,1088.77,1186.68,1091.59,1186.55,1094.84Z"/><path class="cls-1" d="M1328.81,1085.09c0-6.14,0-12.28,0-18.43,0-1.58-.62-2.12-2.36-2.2l-1.9,0c-1.27,0-2.54,0-3.81,0-1.54,0-2.2-.79-2.14-2.43a4.46,4.46,0,0,1,.05-.63,1.76,1.76,0,0,1,1.61-1.63c7.2,0,14.4,0,21.6,0,1.64,0,2.71,2.43,1.73,3.85a1.59,1.59,0,0,1-1,.69c-2.53.16-5.08.18-7.61.37a1.35,1.35,0,0,0-1.23,1.23c0,.63-.15,1.26-.16,1.9,0,1.69,0,3.38,0,5.08v28c0,1,0,2.11,0,3.17,0,1.43-1,2.16-2.55,2.11a1.88,1.88,0,0,1-2.06-1.9q0-9.54,0-19.07Z"/><path class="cls-1" d="M1457.51,1059.72c3.6,0,7.2,0,10.8,0a1.91,1.91,0,0,1,1.68,1.62c.36,1.8-.47,3-2.14,3-2.12.06-4.24.08-6.35.14a1.69,1.69,0,0,0-1.63,1.58c-.06,1.9-.13,3.81-.13,5.71,0,9.74,0,19.49,0,29.23a19,19,0,0,1-.27,3.77,2.09,2.09,0,0,1-1.33,1.15c-1.86.49-3.09-.35-3.09-2.06,0-10.59,0-21.18,0-31.77,0-2.11-.1-4.23-.16-6.34a1.87,1.87,0,0,0-1.23-1.23c-.63,0-1.26-.12-1.9-.14-1.48,0-3,0-4.45,0-2.18,0-2.83-1-2.34-3.34.14-.67.56-1.27,1.18-1.28,3.81-.07,7.62,0,11.43,0Z"/><path class="cls-2" d="M1230,1084.85c0-6.14,0-12.29,0-18.43,0-1.22-.72-1.84-2-1.88-.85,0-1.7,0-2.55,0-1,0-2.12,0-3.17,0-1.82-.06-2.55-1-2.39-2.89a2.24,2.24,0,0,1,1.45-1.85c.63-.06,1.26-.16,1.89-.16,6.57,0,13.14,0,19.71,0,2,0,2.53.7,2.46,2.79,0,1.36-.62,2-1.82,2.09-.22,0-.43,0-.64,0-2.49.25-5.08-.53-7.49.69-.1,2.54-.27,5.07-.28,7.61,0,9.54,0,19.07,0,28.61,0,.85,0,1.7,0,2.55a2.11,2.11,0,0,1-2.45,2.23c-1.53,0-2.49-.81-2.49-2.23,0-6.36,0-12.72,0-19.07Z"/><path class="cls-1" d="M1292.59,958.58a10.62,10.62,0,1,1-10.4-10.49A10.52,10.52,0,0,1,1292.59,958.58Z"/><path class="cls-2" d="M1044.69,1082.74c0-7,0-14,0-21a2.4,2.4,0,0,1,.68-1.65,2.91,2.91,0,0,1,3-.21,1.6,1.6,0,0,1,1,1.49,24,24,0,0,1,.15,3.17q0,18.48,0,37c0,.85,0,1.7-.07,2.55-.07,1.42-1,2.18-2.56,2.16-1.31,0-2.18-.68-2.19-1.78,0-4.24-.06-8.49-.07-12.74q0-4.45,0-8.91Z"/><path class="cls-1" d="M1279.54,1083c0-5.94,0-11.89,0-17.83,0-1.27.07-2.55.13-3.82a1.82,1.82,0,0,1,1.67-1.59c1.92-.21,2.91.55,3,2.33,0,1.27,0,2.55,0,3.82q0,17.19,0,34.4c0,1.27,0,2.54-.07,3.81s-1.15,2.06-2.72,2c-.85,0-1.82-.78-1.86-1.43-.06-1.06-.14-2.12-.15-3.18Q1279.53,1092.2,1279.54,1083Z"/></svg>