<svg xmlns="http://www.w3.org/2000/svg" viewBox="0 0 100 100"><path d="M96.74 3.27c2.03 2.4 2.3 5.8.83 10.24-1.47 4.5-3.97 8.4-7.47 11.9L78.9 36.6 90 84.73c.24.88-.03 1.64-.82 2.3l-8.87 6.63c-.3.28-.7.42-1.3.42-.2 0-.3-.03-.5-.07-.7-.1-1.1-.5-1.4-1.1L57.8 57.8 39.84 75.7l3.65 13.4c.2.77 0 1.48-.6 2.13l-6.65 6.64c-.43.42-.96.63-1.6.63h-.14c-.7-.1-1.25-.4-1.66-.9l-13-17.44L2.4 67.08c-.5-.33-.8-.86-.9-1.6-.04-.6.17-1.17.63-1.73l6.64-6.7c.42-.42.95-.63 1.6-.63.27 0 .46.02.55.07l13.43 3.6 17.92-17.9L7.1 22.9c-.63-.37-1.03-.92-1.16-1.66-.1-.74.1-1.36.62-1.87l8.86-8.9c.64-.6 1.34-.78 2.07-.55l46 11L74.6 9.9c3.5-3.5 7.47-6 11.9-7.46 4.42-1.48 7.84-1.2 10.24.83z" fill="#fff"/></svg>