<svg xmlns="http://www.w3.org/2000/svg" viewBox="0 0 100 100"><path d="M43.66 20.14c-4.08 1.1-7.94 2.75-11.6 4.9-3.64 2.18-6.8 4.62-9.45 7.34-2.6 2.72-4.7 5.7-6.3 8.9-1.5 3.22-2.3 6.5-2.3 9.83 0 2 .4 3.8 1.2 5.2.8 1.5 1.8 2.3 2.9 2.3 1.1 0 2.1-.2 2.9-.62.8-.43 1.6-.92 2.4-1.5.8-.54 1.78-1.03 2.8-1.5 1.08-.4 2.47-.6 4.2-.6 3.6 0 6.7 1.44 9.38 4.34 2.66 2.9 4 6.6 4 11.04 0 4.7-1.8 8.64-5.4 11.8-3.57 3.14-7.96 4.72-13.16 4.72-3.33 0-6.45-.74-9.35-2.23-2.9-1.5-5.5-3.52-7.7-6.12-2.23-2.6-3.96-5.6-5.2-9C1.65 65.46 1 61.76 1 57.8c0-6.2 1.14-11.88 3.43-17.07C6.73 35.53 9.8 31 13.7 27.1c3.9-3.9 8.45-7 13.64-9.28 5.2-2.3 10.63-3.62 16.32-4v6.32zm49.34 0c-4.08 1.1-7.95 2.75-11.6 4.9-3.64 2.18-6.8 4.62-9.45 7.34-2.66 2.72-4.76 5.7-6.3 8.9-1.56 3.22-2.33 6.5-2.33 9.83 0 2 .4 3.8 1.2 5.2.8 1.5 1.77 2.3 2.88 2.3 1.12 0 2.07-.2 2.88-.62.8-.43 1.6-.92 2.4-1.5.8-.54 1.74-1.03 2.8-1.5 1.04-.4 2.43-.6 4.16-.6 3.6 0 6.7 1.44 9.37 4.34 2.7 2.9 4 6.6 4 11.04 0 4.7-1.8 8.64-5.3 11.8-3.6 3.14-8 4.72-13.15 4.72-3.34 0-6.46-.74-9.37-2.23-2.9-1.5-5.47-3.52-7.7-6.12-2.22-2.6-3.95-5.6-5.2-9-1.22-3.4-1.84-7.06-1.84-11.02 0-6.2 1.14-11.86 3.43-17.05 2.3-5.2 5.4-9.73 9.28-13.63 3.9-3.9 8.45-7 13.65-9.3 5.2-2.3 10.6-3.6 16.3-4v6.3z" fill="#fff"/></svg>
